<?xml version="1.0" encoding="iso-8859-1"?>
<!-- Generator: Adobe Illustrator 18.0.0, SVG Export Plug-In . SVG Version: 6.00 Build 0)  -->
<!DOCTYPE svg PUBLIC "-//W3C//DTD SVG 1.1//EN" "http://www.w3.org/Graphics/SVG/1.1/DTD/svg11.dtd">
<svg version="1.1" xmlns="http://www.w3.org/2000/svg" xmlns:xlink="http://www.w3.org/1999/xlink" x="0px" y="0px" width="190px"
	 height="40px" viewBox="0 0 190 40" style="enable-background:new 0 0 190 40;" xml:space="preserve">
<g id="androidtv">
	<g style="opacity:0.7;">
		<path style="fill:#444444;" d="M16.44,30.61v-2.19c-1.64,1.6-3.84,2.59-6.28,2.59C5.08,31.01,1,26.87,1,21.8
			c0-5.03,4.08-9.15,9.15-9.15c2.45,0,4.65,1,6.28,2.59v-2.62h2.43v18H16.44z M16.05,25.21c0.11-0.18,0.28-0.46,0.28-1.07v-4.72
			c0-0.44-0.11-0.69-0.25-0.93c-1.16-1.99-3.31-3.34-5.74-3.34c-3.68,0-6.71,3.01-6.71,6.69c0,3.64,3.03,6.67,6.71,6.67
			C12.76,28.51,14.89,27.19,16.05,25.21z M38.87,20.92v9.69h-2.61v-9.69c0-3.2-2.61-5.76-5.89-5.76c-3.28,0-5.89,2.55-5.89,5.76
			v9.69h-2.61c0-3.24,0-6.46,0-9.69c0-4.58,3.82-8.26,8.5-8.26C35.04,12.66,38.87,16.34,38.87,20.92z M56.44,30.61v-2.19
			c-1.64,1.6-3.84,2.59-6.28,2.59c-5.07,0-9.14-4.14-9.14-9.21c0-5.03,4.07-9.15,9.14-9.15c2.45,0,4.54,0.92,6.18,2.45V8.61h2.53v22
			H56.44z M56.05,25.21c0.11-0.18,0.28-0.46,0.28-1.07v-4.72c0-0.44-0.11-0.69-0.25-0.93c-1.16-1.99-3.31-3.34-5.74-3.34
			c-3.68,0-6.71,3.01-6.71,6.69c0,3.64,3.03,6.67,6.71,6.67C52.76,28.51,54.89,27.19,56.05,25.21z M69.87,15.13
			c-3.29,0-5.5,2.13-5.5,5.32v10.17h-2.5V20.44c0-4.54,3.33-7.8,8-7.8V15.13z M88.2,21.8c0,5.07-4.1,9.21-9.14,9.21
			c-5.07,0-9.19-4.14-9.19-9.21c0-5.03,4.12-9.15,9.19-9.15C84.09,12.64,88.2,16.76,88.2,21.8z M85.64,21.83
			c0-3.68-2.94-6.69-6.58-6.69c-3.7,0-6.58,3.01-6.58,6.69c0,3.64,2.89,6.67,6.58,6.67C82.7,28.51,85.64,25.48,85.64,21.83z
			 M93.87,11.61h-3v-3h3V11.61z M93.87,30.62h-3V13.61h3V30.62z M111.44,30.62v-2.2c-1.64,1.6-3.84,2.59-6.28,2.59
			c-5.07,0-9.14-4.14-9.14-9.21c0-5.03,4.07-9.15,9.14-9.15c2.45,0,4.54,0.92,6.18,2.45V8.61h2.53v22.01H111.44z M111.05,25.21
			c0.14-0.18,0.28-0.46,0.28-1.07v-4.72c0-0.44-0.12-0.69-0.25-0.93c-1.16-1.99-3.31-3.34-5.74-3.34c-3.68,0-6.71,3.01-6.71,6.69
			c0,3.64,3.03,6.67,6.71,6.67C107.76,28.51,109.89,27.19,111.05,25.21z"/>
		<g style="opacity:0.6;">
			<g>
				<path style="fill:#444444;" d="M120.28,13.01h5.6v1.41h-5.6v10.1c0,2.92,2.15,4.68,4.81,4.68h0.7v1.41h-0.7
					c-3.42,0-6.21-2.36-6.21-6.09V8.61h1.41V13.01z M135.79,28.1l-0.77,1.69l-7.75-16.78h1.57L135.79,28.1z M135.4,30.62l-0.39-0.83
					l0.77-1.69l0.77,1.69l-0.37,0.83H135.4z M142.76,13h1.55l-7.75,16.79l-0.77-1.69L142.76,13z"/>
			</g>
		</g>
	</g>
</g>
<g id="androidauto" style="display:none;">
	<g style="display:inline;opacity:0.7;">
		<path style="fill:#444444;" d="M16.44,30.8v-2.19c-1.64,1.6-3.84,2.59-6.28,2.59C5.08,31.2,1,27.06,1,21.99
			c0-5.03,4.08-9.15,9.15-9.15c2.45,0,4.65,1,6.28,2.59V12.8h2.43v18H16.44z M16.05,25.4c0.11-0.18,0.28-0.46,0.28-1.07v-4.72
			c0-0.44-0.11-0.69-0.25-0.93c-1.16-1.99-3.31-3.34-5.74-3.34c-3.68,0-6.71,3.01-6.71,6.69c0,3.64,3.03,6.67,6.71,6.67
			C12.76,28.7,14.89,27.38,16.05,25.4z M38.87,21.11v9.69h-2.61v-9.69c0-3.2-2.61-5.76-5.89-5.76c-3.28,0-5.89,2.55-5.89,5.76v9.69
			h-2.61c0-3.24,0-6.46,0-9.69c0-4.58,3.82-8.26,8.5-8.26C35.04,12.85,38.87,16.53,38.87,21.11z M56.44,30.8v-2.19
			c-1.64,1.6-3.84,2.59-6.28,2.59c-5.07,0-9.14-4.14-9.14-9.21c0-5.03,4.07-9.15,9.14-9.15c2.45,0,4.54,0.92,6.18,2.45V8.8h2.53v22
			H56.44z M56.05,25.4c0.11-0.18,0.28-0.46,0.28-1.07v-4.72c0-0.44-0.11-0.69-0.25-0.93c-1.16-1.99-3.31-3.34-5.74-3.34
			c-3.68,0-6.71,3.01-6.71,6.69c0,3.64,3.03,6.67,6.71,6.67C52.76,28.7,54.89,27.38,56.05,25.4z M69.87,15.32
			c-3.29,0-5.5,2.13-5.5,5.32V30.8h-2.5V20.63c0-4.54,3.33-7.8,8-7.8V15.32z M88.2,21.99c0,5.07-4.1,9.21-9.14,9.21
			c-5.07,0-9.19-4.14-9.19-9.21c0-5.03,4.12-9.15,9.19-9.15C84.09,12.83,88.2,16.95,88.2,21.99z M85.64,22.02
			c0-3.68-2.94-6.69-6.58-6.69c-3.7,0-6.58,3.01-6.58,6.69c0,3.64,2.89,6.67,6.58,6.67C82.7,28.7,85.64,25.67,85.64,22.02z
			 M93.87,11.8h-3v-3h3V11.8z M93.87,30.81h-3V13.8h3V30.81z M111.44,30.81v-2.2c-1.64,1.6-3.84,2.59-6.28,2.59
			c-5.07,0-9.14-4.14-9.14-9.21c0-5.03,4.07-9.15,9.14-9.15c2.45,0,4.54,0.92,6.18,2.45V8.8h2.53v22.01H111.44z M111.05,25.4
			c0.14-0.18,0.28-0.46,0.28-1.07v-4.72c0-0.44-0.12-0.69-0.25-0.93c-1.16-1.99-3.31-3.34-5.74-3.34c-3.68,0-6.71,3.01-6.71,6.69
			c0,3.64,3.03,6.67,6.71,6.67C107.76,28.7,109.89,27.38,111.05,25.4z"/>
		<g style="opacity:0.6;">
			<g>
				<path style="fill:#444444;" d="M174.71,12.85c-5.05,0-9.15,4.1-9.15,9.15c0,5.05,4.1,9.15,9.15,9.15c5.05,0,9.15-4.1,9.15-9.15
					C183.87,16.95,179.76,12.85,174.71,12.85z M174.71,29.75c-4.28,0-7.75-3.47-7.75-7.75s3.47-7.75,7.75-7.75
					c4.28,0,7.75,3.47,7.75,7.75S178.99,29.75,174.71,29.75z"/>
				<path style="fill:#444444;" d="M159.61,8.8h-1.41v15.91c0,3.73,2.8,6.09,6.21,6.09h0.7V29.4h-0.7c-2.66,0-4.81-1.76-4.81-4.68
					V14.61h5.6V13.2h-5.6V8.8z"/>
				<path style="fill:#444444;" d="M153.92,23.06c0,4.03-3.12,6.69-6.81,6.69c-3.79,0-6.87-2.66-6.87-6.69V13.2h-1.41v9.86
					c0,4.84,3.7,8.1,8.27,8.1c4.51,0,8.2-3.26,8.2-8.1V13.2h-1.39V23.06z"/>
				<path style="fill:#444444;" d="M134.54,15.57c-1.66-1.68-3.97-2.72-6.51-2.72c-5.05,0-9.15,4.1-9.15,9.15
					c0,5.05,4.1,9.15,9.15,9.15c2.54,0,4.85-1.05,6.51-2.72v2.37h1.41V13.2h-1.41V15.57z M128.02,29.75c-4.28,0-7.75-3.47-7.75-7.75
					s3.47-7.75,7.75-7.75c2.73,0,5.13,1.43,6.51,3.56v8.36C133.16,28.32,130.76,29.75,128.02,29.75z"/>
			</g>
		</g>
	</g>
</g>
</svg>
